<?xml version="1.0" standalone="no"?><!DOCTYPE svg PUBLIC "-//W3C//DTD SVG 1.1//EN" "http://www.w3.org/Graphics/SVG/1.1/DTD/svg11.dtd"><svg class="icon" width="32px" height="32.00px" viewBox="0 0 1024 1024" version="1.1" xmlns="http://www.w3.org/2000/svg"><path fill="#ffffff" d="M529.493333 713.984a56.96 56.96 0 0 1-37.888 15.957333h-2.730666a54.784 54.784 0 0 1 1.408-109.653333c15.445333 0 29.013333 6.229333 39.210666 16 9.6 9.898667 16.128 23.808 16.128 38.826667s-6.528 29.184-16.128 38.869333z m-39.210666-147.584a108.8 108.8 0 0 0-77.056 31.701333c-20.010667 19.626667-32.170667 46.933333-32.170667 77.013334 0 30.549333 12.16 57.429333 32.170667 77.013333 13.44 13.696 30.848 23.637333 50.090666 28.501333v55.722667a27.178667 27.178667 0 0 0 54.357334 0v-55.722667a109.952 109.952 0 0 0 50.474666-28.501333c19.2-19.626667 32.042667-46.464 32.042667-77.013333 0-30.037333-12.885333-57.386667-32-77.013334a110.378667 110.378667 0 0 0-77.909333-31.701333z m314.496 348.373333c0 5.12-2.048 10.026667-5.290667 13.44l-1.28 1.408a22.741333 22.741333 0 0 1-12.16 3.712H194.688a17.706667 17.706667 0 0 1-12.928-5.12 17.706667 17.706667 0 0 1-5.802667-13.44v-400c0-5.504 1.92-10.154667 5.802667-13.141333a18.346667 18.346667 0 0 1 12.928-5.76h591.36c5.12 0 9.813333 2.261333 13.44 5.76a20.181333 20.181333 0 0 1 5.290667 13.141333v400zM293.333333 287.146667c0-53.888 22.656-103.168 58.154667-138.581334l2.005333-2.346666a197.290667 197.290667 0 0 1 136.789334-55.722667c54.698667 0 103.509333 22.229333 139.52 58.069333a196.565333 196.565333 0 0 1 57.514666 138.581334v117.973333H293.333333V287.146667z m570.496 150.4a109.994667 109.994667 0 0 0-77.781333-32.426667h-7.722667V287.146667a284.714667 284.714667 0 0 0-84.992-202.666667A286.72 286.72 0 0 0 490.282667 0c-77.056 0-148.48 31.488-199.893334 82.176l-3.2 2.261333A286.805333 286.805333 0 0 0 202.666667 287.146667v117.973333h-7.936c-30.378667 0-57.173333 12.288-77.269334 32.426667v0.426666a107.946667 107.946667 0 0 0-32.085333 76.8v400c0 30.08 12.245333 57.6 32.085333 77.312 20.053333 20.138667 46.890667 31.914667 77.269334 31.914667h591.36c28.288 0 54.613333-10.368 74.368-29.184l3.413333-2.730667c19.2-19.712 32.170667-47.232 32.170667-77.312v-400c0-30.08-12.970667-56.917333-32.170667-77.226666z" /></svg>