<?xml version="1.0" standalone="no"?><!DOCTYPE svg PUBLIC "-//W3C//DTD SVG 1.1//EN" "http://www.w3.org/Graphics/SVG/1.1/DTD/svg11.dtd"><svg class="icon" width="32px" height="27.98px" viewBox="0 0 1171 1024" version="1.1" xmlns="http://www.w3.org/2000/svg"><path fill="#ffffff" d="M806.018194 711.232073 806.018194 711.232073C796.343784 720.701928 783.191186 726.722901 769.015662 727.132062L767.320454 727.132062 766.385152 727.132062C751.712744 726.722901 738.238659 720.701928 728.710388 711.232073 718.977463 701.586871 712.722725 687.469763 712.722725 672.534333 712.722725 657.569646 718.977463 643.686351 728.710388 633.836544 738.618661 624.103668 752.355767 617.936555 767.320454 617.936555 782.402072 617.936555 796.343784 624.103668 806.018194 633.836544 815.692654 643.686351 821.976649 657.569646 821.976649 672.534333 821.976649 687.469763 815.692654 701.586871 806.018194 711.232073L806.018194 711.232073ZM767.320454 564.215662 767.320454 564.215662C737.332614 564.215662 710.822912 575.965282 690.684879 595.811035 671.072939 615.36451 659.001783 642.575701 659.001783 672.534333 659.001783 702.960591 671.072939 729.704107 690.684879 749.228373 704.246589 762.877806 721.374159 772.756821 740.226194 777.60868L740.226194 833.141711C740.226194 847.872585 752.355767 860.119089 767.320454 860.119089 782.402072 860.119089 794.473179 847.872585 794.473179 833.141711L794.473179 777.60868C813.383631 772.756821 830.715806 762.877806 843.985286 749.228373 864.210993 729.704107 875.989821 702.960591 875.989821 672.534333 875.989821 642.575701 864.210993 615.36451 843.985286 595.811035 824.57795 575.965282 797.600573 564.215662 767.320454 564.215662L767.320454 564.215662ZM1080.292986 911.267938 1080.292986 911.267938C1080.292986 916.353609 1078.188568 921.234627 1074.739639 924.654299L1073.687454 926.057277C1070.618526 928.337042 1066.117413 929.739971 1061.382485 929.739971L473.521445 929.739971C468.552704 929.739971 464.139313 928.132437 460.164291 924.654299 456.978432 921.234627 454.464853 916.353609 454.464853 911.267938L454.464853 512.774534C454.464853 507.30891 456.978432 502.661705 460.164291 499.680451 464.139313 496.202313 468.552704 493.951756 473.521445 493.951756L1061.382485 493.951756C1066.117413 493.951756 1071.26155 496.202313 1074.739639 499.680451 1078.188568 503.56775 1080.292986 507.805794 1080.292986 512.774534L1080.292986 911.267938ZM1138.42727 435.84668C1118.493842 415.796322 1091.370325 403.549818 1061.382485 403.549818L571.434959 403.549818 571.434959 286.05362C571.434959 207.898136 539.196562 135.96828 487.755435 84.117943L484.832646 81.838178C433.333053 31.36156 362.718403 0 285.264457 0 207.138231 0 135.588279 32.267605 83.73799 84.117943 31.5077 135.96828 0 207.898136 0 286.05362L0 448.940763C0 473.901397 19.728823 493.951756 44.63104 493.951756 69.357861 493.951756 89.466636 473.901397 89.466636 448.940763L89.466636 286.05362C89.466636 232.361935 111.9429 183.259038 147.016411 148.010179L147.016411 147.513295C182.732946 112.293644 231.601981 90.138868 285.264457 90.138868 338.28391 90.138868 386.626853 111.592155 421.817246 145.671948L423.775525 148.010179C459.667407 183.259038 481.412974 232.361935 481.412974 286.05362L481.412974 403.549818 473.521445 403.549818C443.59207 403.549818 416.030135 415.796322 396.242846 435.84668L396.242846 436.285099C376.777045 456.101595 364.179797 482.815951 364.179797 512.774534L364.179797 911.267938C364.179797 941.226569 376.777045 968.642316 396.242846 988.254257 416.030135 1008.304616 443.59207 1020.054235 473.521445 1020.054235L1061.382485 1020.054235C1089.762792 1020.054235 1115.980264 1009.736802 1135.124529 991.001698L1138.42727 988.254257C1158.126885 968.642316 1170.285714 941.226569 1170.285714 911.267938L1170.285714 512.774534C1170.285714 482.815951 1158.126885 456.101595 1138.42727 435.84668L1138.42727 435.84668Z" /></svg>